<svg xmlns="http://www.w3.org/2000/svg" viewBox="0 0 32 32" width="32" height="32">
  <rect width="32" height="32" rx="6" fill="#f0f0f0"/>
  <path d="M4 16 L10 10 L10 12 L6.5 16 L10 20 L10 22 L4 16Z" fill="#6B21A8"/>
  <path d="M28 16 L22 10 L22 12 L25.5 16 L22 20 L22 22 L28 16Z" fill="#6B21A8"/>
  <ellipse cx="16" cy="17" rx="5.5" ry="4.2" fill="#F5A623"/>
  <circle cx="19" cy="13" r="2.8" fill="#F5A623"/>
  <circle cx="20" cy="12.3" r="0.7" fill="#f0f0f0"/>
  <path d="M21.2 13.5 Q23.5 13 23.2 14.2 Q23 15 21.5 14.5Z" fill="#6B21A8"/>
  <path d="M12.5 16 Q14.5 14.5 15.8 16 Q16.8 17.3 14.5 17.8 Q12.5 18 12.5 16Z" fill="#D4891A" opacity="0.9"/>
  <path d="M10.5 17 L8.8 15.5 L8.5 16.5 L10 17.5 L8.5 19 L8.8 19.5 L10.5 18Z" fill="#6B21A8" opacity="0.7"/>
</svg>