<svg xmlns="http://www.w3.org/2000/svg" viewBox="0 0 200 200" width="200" height="200">
  <style>
    .bg { fill: #f0f0f0; }
    .eye-bg { fill: #f0f0f0; }
    .bracket-stop1 { stop-color: #6B21A8; }
    .bracket-stop2 { stop-color: #7C3AED; }
    .eye-iris { fill: #6B21A8; }
    .slash { opacity: 0.1; }
    @media (prefers-color-scheme: dark) {
      .bg { fill: #0D1117; }
      .eye-bg { fill: #0D1117; }
      .bracket-stop1 { stop-color: #7B2CF5; }
      .bracket-stop2 { stop-color: #9B59B6; }
      .eye-iris { fill: #7B2CF5; }
      .slash { opacity: 0.12; }
    }
  </style>
  <defs>
    <linearGradient id="bracketGrad" x1="0%" y1="0%" x2="100%" y2="100%">
      <stop offset="0%" class="bracket-stop1" />
      <stop offset="100%" class="bracket-stop2" />
    </linearGradient>
    <linearGradient id="birdGrad" x1="0%" y1="0%" x2="100%" y2="100%">
      <stop offset="0%" style="stop-color:#F5A623" />
      <stop offset="100%" style="stop-color:#E8920D" />
    </linearGradient>
  </defs>
  <!-- Background rounded square -->
  <rect x="5" y="5" width="190" height="190" rx="30" ry="30" class="bg" />
  <!-- Left angle bracket -->
  <path d="M25 95 L60 65 L60 73 L33 95 L60 117 L60 125 L25 95Z" fill="url(#bracketGrad)" />
  <!-- Right angle bracket -->
  <path d="M175 95 L140 65 L140 73 L167 95 L140 117 L140 125 L175 95Z" fill="url(#bracketGrad)" />
  <!-- Dodo bird body -->
  <ellipse cx="100" cy="105" rx="32" ry="25" fill="url(#birdGrad)" />
  <!-- Head -->
  <circle cx="118" cy="80" r="16" fill="url(#birdGrad)" />
  <!-- Eye -->
  <circle cx="123" cy="76" r="4" class="eye-bg" />
  <circle cx="124.5" cy="74.5" r="1.5" class="eye-iris" />
  <!-- Beak -->
  <path d="M131 82 Q148 78 146 86 Q144 92 134 89 Q131 87 131 85Z" fill="url(#bracketGrad)" />
  <!-- Wing -->
  <path d="M78 98 Q90 88 98 96 Q104 104 90 108 Q78 110 78 98Z" fill="#D4891A" opacity="0.9" />
  <!-- Tail as cursor/caret -->
  <path d="M68 102 L58 94 L56 98 L66 106 L56 114 L58 118 L68 110Z" fill="url(#bracketGrad)" opacity="0.7" />
  <!-- Forward slash (subtle code reference) -->
  <line x1="108" y1="55" x2="92" y2="140" stroke="url(#bracketGrad)" stroke-width="3" class="slash" />
  <!-- Terminal underscore cursor -->
  <rect x="90" y="148" width="20" height="3" rx="1" fill="url(#bracketGrad)" opacity="0.8">
    <animate attributeName="opacity" values="0.8;0.2;0.8" dur="1.2s" repeatCount="indefinite" />
  </rect>
  <!-- Text -->
  <text x="100" y="175" text-anchor="middle" font-family="'SF Mono', 'Fira Code', monospace" font-size="14" font-weight="600" fill="url(#bracketGrad)" letter-spacing="4">DODO</text>
</svg>